<?xml version="1.0" standalone="no"?>
<!DOCTYPE svg PUBLIC "-//W3C//DTD SVG 20010904//EN"
 "http://www.w3.org/TR/2001/REC-SVG-20010904/DTD/svg10.dtd">
<svg version="1.0" xmlns="http://www.w3.org/2000/svg"
 width="538.000000pt" height="538.000000pt" viewBox="0 0 538.000000 538.000000"
 preserveAspectRatio="xMidYMid meet">
<metadata>
Created by potrace 1.11, written by Peter Selinger 2001-2013
</metadata>
<g transform="translate(0.000000,538.000000) scale(0.100000,-0.100000)"
fill="#000000" stroke="none">
<path d="M2319 4567 c-279 -79 -370 -448 -163 -659 25 -26 71 -60 102 -75 51
-25 68 -28 157 -28 92 0 104 2 152 29 152 84 235 254 205 418 -34 185 -168
312 -339 324 -40 2 -87 -2 -114 -9z"/>
<path d="M3370 4154 c-104 -9 -252 -26 -355 -40 -60 -8 -119 -17 -130 -18 -16
-2 -22 -13 -27 -52 -24 -166 -145 -309 -308 -364 -54 -18 -81 -21 -160 -18
-84 4 -104 8 -170 40 -75 36 -122 74 -171 136 l-26 34 -64 -20 c-35 -11 -131
-47 -214 -80 -435 -174 -783 -358 -1135 -602 -141 -97 -295 -220 -408 -325
-117 -108 -143 -133 -174 -169 -38 -46 -40 -47 112 54 105 70 335 210 344 210
2 0 37 19 78 42 196 111 578 272 883 371 1076 349 2153 318 2673 -78 228 -175
336 -369 349 -631 18 -352 -170 -725 -562 -1119 -256 -257 -595 -508 -905
-670 -67 -35 -64 -34 -58 -40 13 -14 377 140 633 267 978 488 1652 1177 1781
1817 12 64 15 118 12 225 -4 125 -8 151 -37 236 -46 135 -109 238 -211 340
-103 105 -188 165 -328 235 -207 103 -404 160 -692 201 -110 15 -616 28 -730
18z"/>
<path d="M3306 3399 c-217 -23 -371 -131 -468 -329 -41 -83 -88 -207 -88 -232
0 -4 76 -8 168 -8 l168 0 33 81 c54 133 116 179 239 179 63 0 107 -17 144 -56
102 -110 33 -292 -128 -337 -32 -9 -89 -19 -126 -23 -38 -4 -68 -7 -68 -8 0 0
-7 -55 -15 -121 -22 -176 -22 -175 21 -175 54 0 164 -28 208 -53 74 -42 102
-110 84 -209 -26 -147 -176 -253 -331 -234 -104 13 -169 88 -185 214 l-7 57
-168 3 -167 2 0 -70 c0 -213 102 -397 264 -473 83 -39 138 -50 261 -49 177 1
318 48 448 151 154 120 247 323 234 511 -8 106 -30 170 -86 243 l-48 63 51 55
c104 111 151 244 144 405 -3 78 -8 100 -37 158 -93 189 -290 281 -545 255z"/>
<path d="M1985 3358 c-3 -7 -36 -193 -75 -413 -38 -220 -105 -602 -149 -850
-43 -247 -75 -453 -72 -458 4 -4 140 -6 301 -5 l294 3 27 155 c15 85 64 364
109 620 44 256 99 565 120 687 22 122 40 233 40 247 l0 26 -295 0 c-227 0
-297 -3 -300 -12z"/>
</g>
</svg>
